<svg width="48.00000000000001" height="48.00000000000001" xmlns="http://www.w3.org/2000/svg">

 <g>
  <title>background</title>
  <rect fill="none" id="canvas_background" height="402" width="582" y="-1" x="-1"/>
 </g>
 <g>
  <title>Layer 1</title>
  <path fill="#2e2e2e" id="svg_2" d="m24,11c-7.2,0 -13,5.8 -13,13c0,7.2 5.8,13 13,13c7.2,0 13,-5.8 13,-13c0,-7.2 -5.8,-13 -13,-13zm0,24c-6.1,0 -11,-4.9 -11,-11s4.9,-11 11,-11s11,4.9 11,11s-4.9,11 -11,11z"/>
  <path fill="#44c2a0" id="svg_3" d="m44,20l-2.4,0c-0.5,-2.1 -1.3,-4 -2.3,-5.6l1.6,-1.8c1.2,-1.2 1.2,-3 0,-4.2l-1.4,-1.4c-1.2,-1.2 -3.1,-1.2 -4.2,0l-1.8,1.8c-1.8,-1.2 -3.6,-1.9 -5.6,-2.3l0,-2.5c0,-1.7 -1.3,-3 -3,-3l-2,0c-1.7,0 -3,1.3 -3,3l0,2.5c-1.9,0.4 -3.8,1.2 -5.6,2.3l-1.7,-1.7c-1.2,-1.2 -3,-1.2 -4.2,0l-1.4,1.4c-0.6,0.6 -0.9,1.3 -0.9,2.1s0.3,1.5 0.9,2.1l1.8,1.7c-1.1,1.8 -1.9,3.6 -2.3,5.6l-2.5,0c-1.7,0 -3,1.3 -3,3l0,2c0,1.7 1.3,3 3,3l2.5,0c0.4,1.9 1.2,3.8 2.4,5.6l-1.7,1.8c-1.2,1.2 -1.2,3 0,4.2l1.3,1.4c1.2,1.2 3,1.2 4.2,0l1.7,-1.8c1.8,1.1 3.6,1.9 5.6,2.3l0,2.5c0,1.7 1.3,3 3,3l2,0c1.7,0 3,-1.3 3,-3l0,-2.4c2.1,-0.5 3.9,-1.3 5.6,-2.3l1.7,1.6c1.2,1.2 3,1.2 4.2,0l1.4,-1.4c1.2,-1.2 1.2,-3 0,-4.2l-1.7,-1.7c1.2,-1.8 1.9,-3.6 2.3,-5.6l2.5,0c1.7,0 3,-1.3 3,-3l0,-2c0,-1.7 -1.3,-3 -3,-3zm1,5c0,0.6 -0.4,1 -1,1l-4.2,0l-0.1,0.8c-0.4,2.2 -1.2,4.3 -2.6,6.3l-0.5,0.7l2.9,2.9c0.2,0.2 0.3,0.4 0.3,0.7c0,0.3 -0.1,0.5 -0.3,0.7l-1.4,1.4c-0.4,0.4 -1,0.4 -1.4,0l-2.9,-2.8l-0.7,0.5c-1.8,1.3 -3.9,2.2 -6.3,2.6l-0.8,0.2l0,4c0,0.6 -0.4,1 -1,1l-2,0c-0.6,0 -1,-0.4 -1,-1l0,-4.2l-0.8,-0.1c-2.2,-0.4 -4.3,-1.2 -6.3,-2.6l-0.7,-0.5l-2.9,3c-0.4,0.4 -1,0.4 -1.4,0l-1.4,-1.4c-0.4,-0.4 -0.4,-1 0,-1.4l2.9,-3l-0.5,-0.7c-1.4,-2 -2.3,-4.1 -2.6,-6.3l-0.1,-0.8l-4.2,0c-0.6,0 -1,-0.4 -1,-1l0,-2c0,-0.6 0.4,-1 1,-1l4.2,0l0.1,-0.8c0.4,-2.2 1.2,-4.3 2.6,-6.3l0.5,-0.7l-3,-2.9c-0.2,-0.2 -0.3,-0.4 -0.3,-0.7s0.1,-0.5 0.3,-0.7l1.4,-1.4c0.4,-0.4 1,-0.4 1.4,0l2.9,2.9l0.7,-0.5c1.9,-1.4 4.1,-2.3 6.3,-2.6l0.8,-0.1l0,-4.2c0,-0.6 0.4,-1 1,-1l2,0c0.6,0 1,0.4 1,1l0,4.2l0.8,0.1c2.2,0.4 4.3,1.2 6.3,2.6l0.7,0.5l3,-3c0.4,-0.4 1,-0.4 1.4,0l1.4,1.4c0.4,0.4 0.4,1 0,1.4l-2.7,3l0.5,0.7c1.2,1.8 2.1,3.9 2.6,6.3l0.1,0.8l4,0c0.6,0 1,0.4 1,1l0,2z"/>
 </g>
</svg>