<svg width="152" height="152" xmlns="http://www.w3.org/2000/svg">

 <g>
  <title>background</title>
  <rect fill="none" id="canvas_background" height="402" width="582" y="-1" x="-1"/>
 </g>
 <g>
  <title>Layer 1</title>
  <path id="svg_2" fill="#2e2e2e" d="m152,152l-152,0l0,-152l152,0l0,152z"/>
  <path id="svg_3" fill="#44c2a0" d="m1.33333,1.33333l149.33367,0l0,149.33367l-149.33367,0l0,-149.33367z"/>
  <path id="svg_4" fill="#2e2e2e" d="m82.6667,14.6667l-72,0l0,-2.6667l72,0l0,2.6667z"/>
  <path id="svg_5" fill="#ffffff" d="m54.6667,26.6667l-24,0l0,-2.6667l24,0l0,2.6667z"/>
  <path stroke="null" id="svg_6" fill="#2e2e2e" d="m72,38.6667l-60.960494,0l0,-2.6667l60.960494,0l0,2.6667z"/>
  <path id="svg_7" fill="#ffffff" d="m118.667,50.6667l-72.0003,0l0,-2.6667l72.0003,0l0,2.6667z"/>
  <path id="svg_8" fill="#2e2e2e" d="m143.062368,50.737684l-18.6667,0l0,-2.6667l18.6667,0l0,2.6667z"/>
  <path id="svg_9" fill="#2e2e2e" d="m129.700046,26.950629l-62.6666,0l0,-2.6667l62.6666,0l0,2.6667z"/>
  <path id="svg_10" fill="#ffffff" d="m108.939462,15.09259l-20,0l0,-2.6667l20,0l0,2.6667z"/>
  <path id="svg_11" fill="#2e2e2e" d="m110.663571,64.397885l-36,0l0,-2.6667l36,0l0,2.6667z"/>
  <path id="svg_12" fill="#ffffff" d="m116.248544,74.663056l-41.333,0l0,-2.667l41.333,0l0,2.667z"/>
  <text font-weight="bold" xml:space="preserve" text-anchor="start" font-family="Helvetica, Arial, sans-serif" font-size="42" id="svg_17" y="139.210237" x="6.052575" stroke-opacity="null" stroke-width="0" stroke="null" fill="#2e2e2e">Python</text>
  <text font-weight="bold" xml:space="preserve" text-anchor="start" font-family="Helvetica, Arial, sans-serif" font-size="48" id="svg_18" y="95.831991" x="7.353923" stroke-opacity="null" stroke-width="0" stroke="null" fill="#2e2e2e">JS</text>
 </g>
</svg>